<svg xmlns="http://www.w3.org/2000/svg" viewBox="0 0 800 800" role="img" aria-label="Stop light shot with red yellow green layers">
  <defs>
    <linearGradient id="bg" x1="0" y1="0" x2="0" y2="1">
      <stop offset="0%" stop-color="#0f1118"/>
      <stop offset="100%" stop-color="#1a1f2d"/>
    </linearGradient>
    <linearGradient id="glass" x1="0" y1="0" x2="0" y2="1">
      <stop offset="0%" stop-color="#f7fbff" stop-opacity="0.38"/>
      <stop offset="100%" stop-color="#b2c6d9" stop-opacity="0.18"/>
    </linearGradient>
    <filter id="shadow" x="-20%" y="-20%" width="140%" height="160%">
      <feDropShadow dx="0" dy="14" stdDeviation="14" flood-color="#000000" flood-opacity="0.45"/>
    </filter>
  </defs>
  <rect width="800" height="800" fill="url(#bg)"/>
  <rect x="84" y="688" width="632" height="22" rx="11" fill="#0a0d14" opacity="0.6"/>

  <g filter="url(#shadow)">
    <g transform="translate(120 166)">
      <path d="M0 8 Q0 0 8 0 H150 Q158 0 158 8 V382 Q158 408 132 418 L84 436 Q79 438 74 438 Q69 438 64 436 L26 420 Q0 410 0 382 Z" fill="url(#glass)" stroke="#d3e5f7" stroke-opacity="0.5" stroke-width="4"/>
      <rect x="20" y="26" width="118" height="116" rx="12" fill="#f4363d"/>
      <rect x="20" y="144" width="118" height="116" rx="12" fill="#ffcd3f"/>
      <rect x="20" y="262" width="118" height="116" rx="12" fill="#31d36c"/>
      <rect x="20" y="26" width="118" height="352" rx="12" fill="none" stroke="#ffffff" stroke-opacity="0.24" stroke-width="2"/>
    </g>

    <g transform="translate(324 150)">
      <path d="M0 8 Q0 0 8 0 H150 Q158 0 158 8 V382 Q158 408 132 418 L84 436 Q79 438 74 438 Q69 438 64 436 L26 420 Q0 410 0 382 Z" fill="url(#glass)" stroke="#d3e5f7" stroke-opacity="0.54" stroke-width="4"/>
      <rect x="20" y="26" width="118" height="116" rx="12" fill="#f4363d"/>
      <rect x="20" y="144" width="118" height="116" rx="12" fill="#ffcd3f"/>
      <rect x="20" y="262" width="118" height="116" rx="12" fill="#31d36c"/>
      <rect x="20" y="26" width="118" height="352" rx="12" fill="none" stroke="#ffffff" stroke-opacity="0.24" stroke-width="2"/>
    </g>

    <g transform="translate(528 166)">
      <path d="M0 8 Q0 0 8 0 H150 Q158 0 158 8 V382 Q158 408 132 418 L84 436 Q79 438 74 438 Q69 438 64 436 L26 420 Q0 410 0 382 Z" fill="url(#glass)" stroke="#d3e5f7" stroke-opacity="0.5" stroke-width="4"/>
      <rect x="20" y="26" width="118" height="116" rx="12" fill="#f4363d"/>
      <rect x="20" y="144" width="118" height="116" rx="12" fill="#ffcd3f"/>
      <rect x="20" y="262" width="118" height="116" rx="12" fill="#31d36c"/>
      <rect x="20" y="26" width="118" height="352" rx="12" fill="none" stroke="#ffffff" stroke-opacity="0.24" stroke-width="2"/>
    </g>
  </g>
</svg>
