<svg xmlns="http://www.w3.org/2000/svg" viewBox="0 0 180 520" role="img" aria-label="Slot machine handle">
  <defs>
    <linearGradient id="railOuter" x1="20" y1="80" x2="150" y2="430" gradientUnits="userSpaceOnUse">
      <stop offset="0" stop-color="#fff7c8"/>
      <stop offset="0.18" stop-color="#ffc94a"/>
      <stop offset="0.45" stop-color="#a96613"/>
      <stop offset="0.7" stop-color="#6d3900"/>
      <stop offset="1" stop-color="#ffe38a"/>
    </linearGradient>
    <linearGradient id="railInner" x1="54" y1="122" x2="126" y2="392" gradientUnits="userSpaceOnUse">
      <stop offset="0" stop-color="#fffbe4"/>
      <stop offset="0.32" stop-color="#f2c656"/>
      <stop offset="0.58" stop-color="#8c5310"/>
      <stop offset="1" stop-color="#f9da7b"/>
    </linearGradient>
    <linearGradient id="stem" x1="56" y1="160" x2="114" y2="370" gradientUnits="userSpaceOnUse">
      <stop offset="0" stop-color="#fff8cf"/>
      <stop offset="0.28" stop-color="#f4c552"/>
      <stop offset="0.55" stop-color="#92580d"/>
      <stop offset="0.77" stop-color="#fff0a3"/>
      <stop offset="1" stop-color="#734005"/>
    </linearGradient>
    <radialGradient id="orb" cx="35%" cy="24%" r="76%">
      <stop offset="0" stop-color="#ffffff"/>
      <stop offset="0.12" stop-color="#ffe0ff"/>
      <stop offset="0.34" stop-color="#d384ff"/>
      <stop offset="0.6" stop-color="#8534de"/>
      <stop offset="0.82" stop-color="#42107d"/>
      <stop offset="1" stop-color="#19043e"/>
    </radialGradient>
    <radialGradient id="orbHotspot" cx="38%" cy="30%" r="58%">
      <stop offset="0" stop-color="#ffffff" stop-opacity="0.78"/>
      <stop offset="0.45" stop-color="#ffffff" stop-opacity="0.1"/>
      <stop offset="1" stop-color="#ffffff" stop-opacity="0"/>
    </radialGradient>
    <filter id="shadow" x="-35%" y="-20%" width="180%" height="150%">
      <feDropShadow dx="0" dy="15" stdDeviation="12" flood-color="#000000" flood-opacity="0.48"/>
    </filter>
    <filter id="purpleGlow" x="-45%" y="-45%" width="190%" height="190%">
      <feGaussianBlur stdDeviation="8" result="blur"/>
      <feFlood flood-color="#ad62ff" flood-opacity="0.62"/>
      <feComposite in2="blur" operator="in"/>
      <feMerge>
        <feMergeNode/>
        <feMergeNode in="SourceGraphic"/>
      </feMerge>
    </filter>
  </defs>
  <g filter="url(#shadow)">
    <path d="M88 90c39-4 68 24 64 65l-21 216c-3 33-29 58-62 56-34-2-54-33-43-65l54-154c9-26 4-50-14-72-17-20-7-43 22-46Z" fill="url(#railOuter)"/>
    <path d="M95 132c22 6 34 27 30 51l-25 174c-2 15-14 26-29 25-16-1-25-15-20-30l48-143c8-25 4-50-12-70Z" fill="url(#railInner)" opacity="0.94"/>
    <path d="M92 152c16 3 25 18 22 36L86 357c-2 10-10 17-20 16-10-1-16-10-12-20l45-139c9-27 5-47-14-62Z" fill="#fff7cb" opacity="0.36"/>
    <rect x="62" y="162" width="42" height="224" rx="21" fill="url(#stem)" transform="rotate(7 83 274)"/>
    <rect x="76" y="175" width="10" height="188" rx="5" fill="#ffffff" opacity="0.36" transform="rotate(7 81 269)"/>
    <circle cx="92" cy="72" r="58" fill="url(#orb)" filter="url(#purpleGlow)"/>
    <circle cx="92" cy="72" r="53" fill="none" stroke="#ffffff" stroke-opacity="0.5" stroke-width="5"/>
    <circle cx="92" cy="72" r="61" fill="none" stroke="#43136e" stroke-opacity="0.54" stroke-width="4"/>
    <circle cx="69" cy="48" r="15" fill="#ffffff" opacity="0.88"/>
    <circle cx="84" cy="66" r="54" fill="url(#orbHotspot)"/>
    <path d="M52 395c14 19 47 27 73 7" fill="none" stroke="#ffe58f" stroke-width="7" stroke-linecap="round" opacity="0.48"/>
  </g>
</svg>
